<?xml version="1.0" encoding="utf-8"?>
<!-- Svg Vector Icons : http://www.onlinewebfonts.com/icon -->
<!DOCTYPE svg PUBLIC "-//W3C//DTD SVG 1.1//EN" "http://www.w3.org/Graphics/SVG/1.1/DTD/svg11.dtd">
<svg version="1.1" xmlns="http://www.w3.org/2000/svg" xmlns:xlink="http://www.w3.org/1999/xlink" x="0px" y="0px" viewBox="0 0 1000 1000" enable-background="new 0 0 1000 1000" xml:space="preserve">
<metadata> Svg Vector Icons : http://www.onlinewebfonts.com/icon </metadata>
<g><g transform="matrix(1 0 0 -1 0 800)"><path d="M504.7,313.8c25.2,13.1,36.8,33.5,34.6,61.4c-2.2,27.8-13.7,50.9-34.6,69.2c-30.5,23.5-64.2,30.7-101.2,21.5c-37-9.1-65.1-30.7-84.2-64.6c-24.4-45.3-30.5-87.9-18.3-127.9c12.2-40,37.9-73.5,77-100.5c39.2-27,81.4-39.6,126.6-37.9c71.4,5.2,126.8,38.1,166.4,98.6c39.6,60.5,51.1,125.5,34.6,195.2c-18.3,80.1-64.2,139-137.7,176.9s-149,44.2-226.5,18.9c-69.6-20.9-124.7-63.5-165.1-127.9c-40.5-64.4-58.1-134-52.9-208.9c7.8-80.9,39.8-151.2,95.9-210.8c56.1-59.6,123.8-96.4,203-110.3C499.1-47.3,573.3-38.2,645.1-6c71.8,32.2,128.1,80.9,169,146.2c43.5,68.7,65.3,137.5,65.3,206.2c0,13.9,6.1,26.3,18.3,37.2c12.2,10.9,26.1,15,41.8,12.4c20,0,33.9-8,41.8-24.1c7.8-16.1,10.4-33.7,7.8-52.9C977.7,190.3,922.9,80.2,824.5-11.2c-98.3-91.4-212.3-137.1-342-137.1c-62.7,0-123.1,12.6-181.4,37.9C242.8-85.2,193-51.4,151.6-9.2C110.3,33,76.4,81.7,49.8,137C23.3,192.2,10,250.1,10,310.6S22.6,432.2,47.9,494c33.1,71.4,82.2,129.2,147.5,173.6c65.3,44.4,133.1,70.5,203.6,78.3c70.5,7.8,140.3-3.9,209.5-35.2c69.2-31.3,123.4-81.8,162.5-151.4c40.9-67,57.2-141.2,49-222.6s-40.7-150.3-97.2-206.9c-54.8-54.8-121.8-86.2-201-94c-79.2-7.8-151.9,10.9-218,56.1c-61.8,44.4-99.2,104.9-112.3,181.4c-13.1,76.6,4.4,146.6,52.2,210.2c30.5,40.9,70.7,69,120.7,84.2c50,15.2,99.4,14.4,148.2-2.6c48.7-17,86.2-48.1,112.3-93.3c14.8-25.2,22.4-54.2,22.8-86.8c0.4-32.6-5.2-62.9-17-90.7c-11.7-27.8-30.5-50.5-56.1-67.9C548.9,209,520,202,487.8,205.5c-45.3,0-81.6,19.1-109,57.4s-28.9,77-4.6,116.2c17.4,23.5,39.6,33.7,66.6,30.7c27-3,46.6-15,58.7-35.9c3.5-13.1,5.7-24.6,6.5-34.6c0.9-10,0.9-16.8,0-20.2L504.7,313.8z"/></g></g>
</svg>